<svg
    id="Layer_1"
    enable-background="new 0 0 512 512"
    height="512"
    viewBox="0 0 512 512"
    width="512"
    xmlns="http://www.w3.org/2000/svg">
    <g>
        <path d="m107.367 68.015h-32.279c-4.142 0-7.5 3.358-7.5 7.5s3.358 7.5 7.5 7.5h32.279c4.142 0 7.5-3.358 7.5-7.5s-3.358-7.5-7.5-7.5z"/>
        <path d="m176.785 68.015h-32.279c-4.142 0-7.5 3.358-7.5 7.5s3.358 7.5 7.5 7.5h32.279c4.142 0 7.5-3.358 7.5-7.5s-3.358-7.5-7.5-7.5z"/>
        <path d="m246.938 68.015h-32.279c-4.142 0-7.5 3.358-7.5 7.5s3.358 7.5 7.5 7.5h32.279c4.142 0 7.5-3.358 7.5-7.5s-3.358-7.5-7.5-7.5z"/>
        <path d="m504.5 137.933h-26v-70.018c0-18.976-15.438-34.415-34.415-34.415h-376.17c-18.977 0-34.415 15.438-34.415 34.415v70.019h-26c-4.142 0-7.5 3.358-7.5 7.5v135.629c0 4.142 3.358 7.5 7.5 7.5h26v155.523c0 18.976 15.438 34.415 34.415 34.415h301.155c4.142 0 7.5-3.358 7.5-7.5s-3.358-7.5-7.5-7.5h-301.155c-10.705 0-19.415-8.709-19.415-19.415v-155.523h415v155.523c0 10.705-8.709 19.415-19.415 19.415h-39.76c-4.142 0-7.5 3.358-7.5 7.5s3.358 7.5 7.5 7.5h39.76c18.976 0 34.415-15.438 34.415-34.415v-155.523h26c4.142 0 7.5-3.358 7.5-7.5v-135.63c0-4.142-3.358-7.5-7.5-7.5zm-7.5 135.63h-482v-120.63h60.088c4.142 0 7.5-3.358 7.5-7.5s-3.358-7.5-7.5-7.5h-26.588v-20.019h342.569c4.142 0 7.5-3.358 7.5-7.5s-3.358-7.5-7.5-7.5h-342.569v-35c0-10.705 8.709-19.415 19.415-19.415h376.171c10.705 0 19.415 8.709 19.415 19.415v35h-37.534c-4.142 0-7.5 3.358-7.5 7.5s3.358 7.5 7.5 7.5h37.533v20.019h-353.801c-4.142 0-7.5 3.358-7.5 7.5s3.358 7.5 7.5 7.5h387.301z"/>
        <path d="m218.1 248.485c.865 2.861 3.346 4.935 6.314 5.279s5.858-1.105 7.355-3.692l24.231-41.855 24.231 41.854c1.351 2.333 3.835 3.742 6.489 3.742.287 0 .577-.016.867-.05 2.968-.345 5.449-2.418 6.314-5.279l20-66.132c1.199-3.965-1.043-8.151-5.008-9.35-3.963-1.202-8.151 1.042-9.35 5.008l-14.995 49.58-22.058-38.101c-1.341-2.316-3.814-3.742-6.491-3.742s-5.15 1.426-6.491 3.742l-22.058 38.101-14.995-49.58c-1.199-3.965-5.388-6.208-9.35-5.008-3.965 1.199-6.207 5.385-5.008 9.35z"/>
        <path d="m104.402 189.49-22.057 38.101-14.995-49.58c-1.199-3.965-5.388-6.208-9.35-5.008-3.965 1.199-6.207 5.385-5.008 9.35l20 66.132c.865 2.861 3.346 4.935 6.314 5.279 2.971.349 5.858-1.106 7.355-3.692l24.23-41.854 24.231 41.854c1.351 2.333 3.835 3.742 6.489 3.742.287 0 .577-.016.867-.05 2.968-.345 5.449-2.418 6.314-5.279l20-66.132c1.199-3.965-1.043-8.151-5.008-9.35-3.964-1.202-8.151 1.042-9.35 5.008l-14.995 49.58-22.058-38.101c-1.341-2.316-3.814-3.742-6.491-3.742s-5.147 1.426-6.488 3.742z"/>
        <path d="m363.207 248.485c.865 2.861 3.346 4.935 6.314 5.279.29.034.579.05.867.05 2.653 0 5.138-1.409 6.489-3.742l24.231-41.854 24.23 41.854c1.498 2.586 4.387 4.037 7.355 3.692s5.449-2.418 6.314-5.279l20-66.132c1.199-3.965-1.043-8.151-5.008-9.35-3.964-1.202-8.151 1.042-9.35 5.008l-14.995 49.58-22.057-38.101c-1.341-2.316-3.814-3.742-6.491-3.742s-5.15 1.426-6.491 3.742l-22.058 38.101-14.995-49.58c-1.199-3.965-5.384-6.208-9.35-5.008-3.965 1.199-6.207 5.385-5.008 9.35z"/>
        <path d="m222.73 318.486h-137.274c-4.142 0-7.5 3.358-7.5 7.5s3.358 7.5 7.5 7.5h137.274c4.142 0 7.5-3.358 7.5-7.5s-3.358-7.5-7.5-7.5z"/>
        <path d="m191.514 423.244h31.216c4.142 0 7.5-3.358 7.5-7.5s-3.358-7.5-7.5-7.5h-31.216c-4.142 0-7.5 3.358-7.5 7.5s3.358 7.5 7.5 7.5z"/>
        <path d="m85.456 408.244c-4.142 0-7.5 3.358-7.5 7.5s3.358 7.5 7.5 7.5h71.34c4.142 0 7.5-3.358 7.5-7.5s-3.358-7.5-7.5-7.5z"/>
        <path d="m200.192 371.185c0-4.142-3.358-7.5-7.5-7.5h-107.274c-4.142 0-7.5 3.358-7.5 7.5s3.358 7.5 7.5 7.5h107.274c4.142 0 7.5-3.358 7.5-7.5z"/>
        <path d="m288.73 423.244h137.274c4.142 0 7.5-3.358 7.5-7.5s-3.358-7.5-7.5-7.5h-137.274c-4.142 0-7.5 3.358-7.5 7.5s3.358 7.5 7.5 7.5z"/>
        <path d="m426.004 333.486c4.142 0 7.5-3.358 7.5-7.5s-3.358-7.5-7.5-7.5h-31.216c-4.142 0-7.5 3.358-7.5 7.5s3.358 7.5 7.5 7.5z"/>
        <path d="m288.73 333.486h71.339c4.142 0 7.5-3.358 7.5-7.5s-3.358-7.5-7.5-7.5h-71.339c-4.142 0-7.5 3.358-7.5 7.5s3.358 7.5 7.5 7.5z"/>
        <path d="m288.692 378.045h107.274c4.142 0 7.5-3.358 7.5-7.5s-3.358-7.5-7.5-7.5h-107.274c-4.142 0-7.5 3.358-7.5 7.5 0 4.143 3.358 7.5 7.5 7.5z"/>
    </g>
</svg>